<svg xmlns="http://www.w3.org/2000/svg" viewBox="0 0 116.8 19.3"><style>.st0{fill:#3776b9}</style><g id="Layer_1"><path className="st0" d="M0 0h5.3v5.3H0zm6.8 0h5.3v5.3H6.8zm6.9 0H19v5.3h-5.3zM0 6.8h5.3v5.3H0zm6.8 0h5.3v5.3H6.8zm6.9 0H19v5.3h-5.3zM0 13.7h5.3V19H0zm6.8 0h5.3V19H6.8z"/><path d="M13.7 13.7H19V19h-5.3z" fill="#3776b9"/><path className="st0" d="M29.8 8.2c1.1-1 2.5-1.5 4-1.5 2.7 0 5.3 1.8 5.3 6.3s-2.9 6.3-6.1 6.3c-1.6 0-3.2-.4-4.6-1.3V0h1.4v8.2zm0 9.1c1 .5 2.1.8 3.2.8 2.5 0 4.8-1.5 4.8-5.1 0-3.2-1.8-5.1-4.1-5.1-1.5.1-2.9.8-3.9 1.9v7.5zM41.5 19V0h1.3v19h-1.3zm5.8-4.7c0 2.9 1.4 3.7 2.8 3.7 1.8-.1 3.3-1.1 4.2-2.7V6.9h1.4v12.2h-1.4v-2.4c-1 1.5-2.8 2.5-4.6 2.5-1.9 0-3.8-1.1-3.8-4.8V6.9h1.4v7.4zm21.4 3.9c-1.3.7-2.8 1.1-4.3 1-4.1-.1-6.2-3.4-6.1-6.8 0-3.2 2.5-5.8 5.6-5.8h.4c3.3.1 5.5 2.7 5.1 6.6h-9.8c0 2.6 2.1 4.7 4.7 4.8h.1c1.3 0 2.6-.3 3.8-.9l.5 1.1zm-.5-6.1c.1-2.2-1.6-4.1-3.8-4.2h-.2c-2.4-.1-4.4 1.8-4.5 4.2h8.5zm5.6-2.9c1-1.6 2.6-2.5 4.5-2.6 2.4 0 3.9 1.8 3.9 4.6V19h-1.3v-7.6c0-2.6-1.4-3.6-2.8-3.6-1.8.2-3.3 1.2-4.2 2.7V19h-1.3V0H74c-.2 0-.2 9.2-.2 9.2zm22.3 3.7c0 4-2.7 6.3-5.9 6.3-3.5 0-5.9-2.8-5.9-6.3-.2-3.3 2.3-6.1 5.6-6.3h.3c3.2.1 5.9 2.4 5.9 6.3zm-10.3 0c0 2.7 1.6 5 4.5 5s4.5-2.4 4.5-5-1.7-5-4.5-5-4.5 2.3-4.5 5zm13.4 4c1 .6 2.1 1 3.2 1 1.3 0 2.9-.5 2.8-1.8 0-1.1-1.2-2-3-2.7-2.1-.8-3.9-1.6-3.9-3.5s1.8-3.3 4.2-3.3c1.2 0 2.3.3 3.4.9l-.5 1.1c-.9-.5-1.8-.7-2.8-.7-2 0-2.9 1-2.9 2 0 1.3 1.5 1.8 3.4 2.6 2.9 1.1 3.6 2.5 3.6 3.6 0 1.9-1.8 3.1-4.2 3.1-1.4 0-2.7-.4-3.9-1.1l.6-1.2zm16.4-10V8h-4v6.7c0 2 .8 3.2 2.6 3.3.8 0 1.6-.1 2.3-.5l.4 1.2c-.9.3-1.8.5-2.7.5-2.2 0-3.9-1.3-3.9-4.5V8H108V6.9h2.2V2.8h1.4v4.1h4z"/></g></svg>