<svg xmlns="http://www.w3.org/2000/svg" xmlns:xlink="http://www.w3.org/1999/xlink" viewBox="0 0 1440 887.04"><defs><style>.cls-1,.cls-13,.cls-2{stroke:#fff;}.cls-1,.cls-10,.cls-13,.cls-2,.cls-7{stroke-miterlimit:10;}.cls-1,.cls-2{stroke-width:0.55px;opacity:0.38;}.cls-1{fill:url(#linear-gradient);}.cls-2{fill:url(#linear-gradient-2);}.cls-3,.cls-7{opacity:0.4;}.cls-10,.cls-4{fill:#fff;}.cls-5{opacity:0.8;}.cls-6{opacity:0.6;}.cls-13,.cls-7{fill:none;}.cls-7{stroke:#004d77;stroke-dasharray:9.82;}.cls-8{fill:#4378a5;}.cls-9{fill:#4687c7;}.cls-10{stroke:#004c75;stroke-width:1.28px;}.cls-11{fill:#bcbec0;opacity:0.15;}.cls-12{fill:#004c75;}.cls-13{stroke-linecap:round;stroke-width:1px;}</style><linearGradient id="linear-gradient" x1="-121.61" y1="941.27" x2="1122" y2="941.27" gradientTransform="translate(121.34 -385.08) rotate(-6.04)" gradientUnits="userSpaceOnUse"><stop offset="0" stop-color="#fff"/><stop offset="1" stop-color="#52c8eb"/></linearGradient><linearGradient id="linear-gradient-2" x1="52.41" y1="380.55" x2="1223.92" y2="380.55" gradientTransform="matrix(1, 0, 0, 1, 0, 0)" xlink:href="#linear-gradient"/></defs><title>Artboard 25 copy</title><g id="Layer_1" data-name="Layer 1"><path className="cls-1" d="M217.25,267.09C215.84,253.86,258.76,255,266,255.51c101.46,7.13,139.82-11.07,240.23-37.6C626,186.26,690.05,48.71,1077.55,58.11c104.81,2.54,6.9,179.82,26.62,247.24,39.92,136.46,309.15,227.57,244.33,396.37C1270.44,905,922.8,912.1,760.1,827.15,661.72,775.78,583.67,692.08,477.69,654.4c-92.54-32.91-281-32.62-348.74-96.92C42.19,475.12,112.51,313.14,204.12,262"/><path className="cls-2" d="M1210.17,440.84c-12.59,53.63-28.88,110.43-26.2,153.62,5.82,93.72-87.87,124.84-165.44,128-143.08,5.91-276.82-56.08-419-53.72a351.45,351.45,0,0,0-69.9,8.45c-75.89,16.6-143.33,53.41-221.25,72.39-58.07,14.15-202,30.43-217.83-53.47l-7.68-22.28c-.19,0-.18.06-.34-.18-22-33.41-45.19-92.7-17.25-127.84,10-12.57,20.57-25.44,31.71-38.34,40.43-46.81,88.27-93.93,142.56-128.26,35.61-22.51,51.78-74.74,70.77-122.2,11.63-29.07,24.32-56.35,43.2-73.91C469.77,74.9,601.1,29,730.8,0H900.86c15.87,12,29.06,29,39.94,49.34q3.08,5.76,6.53,11.58c36,60.72,101.81,126.18,160.28,171.48,30.62,23.74,59.22,41.94,80.47,51C1237,304.39,1226.83,369.84,1210.17,440.84Z"/><g className="cls-3"><path className="cls-4" d="M1129.87,626.86c-6.54,20.71,5.6,39.2,25.68,41.37,12.16,1.32,29.38-.29,35.79-9.69,10.58,15.4,29.87,14,45.53,14,13.64,0,20.51-5.85,29.25-15,13.55,8.56,21.67,20,37.81,20,37.8,0,49-20.21,53.5-46.37,3.56-20.69-19.26-49.22-53.91-44.26-2.6.38-5.22.22-7.74.62-6-22.82-20.78-27-44.64-33.4-18.55-5-39.49,2-49.2,14.79a129.24,129.24,0,0,0-14.29-1.24c-17,0-23.38,14.26-23.38,31.28a30.8,30.8,0,0,0,.28,4.1c-.87-.06-1.74-.1-2.63-.1C1142.27,602.93,1134.15,613.31,1129.87,626.86Z"/></g><g className="cls-5"><path className="cls-4" d="M1203.7,563.12c11.09,35.12-9.5,66.48-43.55,70.16-20.62,2.23-49.83-.5-60.69-16.43-17.94,26.11-50.65,23.69-77.21,23.69-23.14,0-34.78-9.93-49.6-25.4-23,14.51-36.75,33.87-64.11,33.87-64.12,0-83.08-34.27-90.73-78.63-6-35.08,32.66-83.47,91.41-75.05,4.42.63,8.85.36,13.14,1.05,10.16-38.7,35.24-45.76,75.69-56.65,31.46-8.47,67,3.41,83.44,25.08,3.74-.87,20.23-2.09,24.23-2.09,28.86,0,39.64,24.17,39.64,53a51.34,51.34,0,0,1-.47,7c1.47-.11,3-.16,4.46-.16C1182.67,522.55,1196.44,540.14,1203.7,563.12Z"/></g><path className="cls-4" d="M414.48,511.93c7.95,25.19-6.81,47.67-31.23,50.31-14.78,1.6-35.72-.36-43.52-11.78-12.86,18.72-36.31,17-55.36,17-16.59,0-24.93-7.11-35.56-18.21-16.48,10.41-26.35,24.29-46,24.29-46,0-59.57-24.57-65.05-56.38-4.34-25.16,23.42-59.85,65.54-53.81,3.17.45,6.35.26,9.42.75C220,436.33,238,431.27,267,423.46c22.55-6.07,48,2.45,59.82,18,2.68-.62,14.51-1.5,17.37-1.5,20.7,0,28.43,17.34,28.43,38a37.22,37.22,0,0,1-.34,5c1.06-.08,2.12-.12,3.2-.12C399.4,482.84,409.28,495.45,414.48,511.93Z"/><g className="cls-6"><path className="cls-4" d="M243.62,433.16c-9.44,29.89,8.08,56.57,37.06,59.71,17.55,1.89,42.4-.43,51.65-14C347.59,501.1,375.43,499,398,499c19.69,0,29.59-8.44,42.21-21.61,19.56,12.35,31.27,28.82,54.56,28.82,54.56,0,70.7-29.16,77.21-66.91,5.14-29.86-27.8-71-77.79-63.87-3.76.54-7.54.31-11.18.9-8.65-32.94-30-38.94-64.42-48.21-26.76-7.21-57,2.9-71,21.34-3.18-.74-17.22-1.78-20.62-1.78-24.56,0-33.74,20.57-33.74,45.14a44.21,44.21,0,0,0,.4,5.91c-1.25-.09-2.51-.14-3.79-.14C261.52,398.63,249.8,413.6,243.62,433.16Z"/></g><path className="cls-7" d="M177.44,634.66c30.71,26.37,72.39,36.51,112.82,38.56,49,2.48,101.81-7.43,136.72-41.94s42.64-98.4,6.28-131.39c-10-9.09-28.5-13.83-35.18-2.06-3.56,6.28-1.52,14.29,1.94,20.63,10.71,19.67,33.34,30.58,55.64,32.78s44.6-3,66.3-8.59a1749.75,1749.75,0,0,0,170-53.13c50-18.47,103.72-39.54,155-25.09,16,4.52,32.51,14.06,37.39,30s-5.09,34.88-20.9,40.44-35-2.4-42.82-17.22c-13.17-24.9,7.17-56.6,33.35-67s55.49-6.31,83.6-4.62a462.86,462.86,0,0,0,103.7-5.43c23.27-3.87,47.13-9.95,65.33-24.95"/><path className="cls-8" d="M1131.23,374.51l-16,3.68-15,13.49s1.4,2.34,4.61.7,10.8-6,10.8-6l5.31,1.86Z"/><path className="cls-8" d="M1151.26,396.54l-5.2,15.57L1131.2,425.8s-2.2-1.62-.25-4.66,7-10.18,7-10.18l-1.35-5.46Z"/><line className="cls-9" x1="1129.35" y1="396.32" x2="1128.64" y2="396.97"/><rect className="cls-8" x="1114.1" y="401.96" width="14.58" height="3.21" transform="translate(665.86 -697.74) rotate(47.74)"/><path className="cls-10" d="M1122.18,403.14,1115.7,396s1.6-8.14,18.29-24.39l2.15-2c22.36-19.06,38.54-14.59,38.54-14.59l.07.07s2.9,16.53-18.21,37l-2.15,2c-17.77,15.06-26,15.88-26,15.88l-5.84-6.43Z"/><path className="cls-11" d="M1156.4,392.25l-2.16,2c-17.77,15.06-26,15.87-26,15.87l-6.35-7,26.23-23.85,5.22,2.46,5.9-1.71,1.4-5.48-1.3-5.46,15.22-13.83.06.06S1177.5,371.8,1156.4,392.25Z"/><path className="cls-12" d="M1160.17,368.34a8.74,8.74,0,1,0-.59,12.34A8.75,8.75,0,0,0,1160.17,368.34Zm-10.89,9.9a6,6,0,1,1,8.44.4A6,6,0,0,1,1149.28,378.24Z"/><circle className="cls-11" cx="1153.71" cy="374.22" r="5.98"/><polygon className="cls-9" points="1112.74 413.62 1128.98 400.85 1130.56 395.45 1130.34 395.21 1124.82 396.26 1110.56 411.21 1112.74 413.62"/><line className="cls-13" x1="1150.94" y1="372.37" x2="1156.25" y2="373.33"/><line className="cls-13" x1="1151.03" y1="375.66" x2="1154.98" y2="376.37"/><line className="cls-13" x1="1154.32" y1="374.54" x2="1156.9" y2="375"/><line className="cls-13" x1="1152.03" y1="374.16" x2="1152.64" y2="374.26"/></g></svg>