<?xml version="1.0" encoding="UTF-8"?>
<svg width="199px" height="42px" viewBox="0 0 199 42" version="1.1" xmlns="http://www.w3.org/2000/svg" xmlns:xlink="http://www.w3.org/1999/xlink">
    <title>F789B0CA-3549-455A-ADA1-E27A725C60A2</title>
    <defs>
        <polygon id="path-1" points="0 0 40.679558 0 40.679558 42 0 42"></polygon>
    </defs>
    <g id="HP-PC-Mag-Award-R3" stroke="none" stroke-width="1" fill="none" fill-rule="evenodd">
        <g id="PC-Mag-HP-Desktop-Dual-4" transform="translate(-1029.000000, -734.000000)">
            <g id="PCMag-Banner" transform="translate(-3.000000, 694.000000)">
                <g id="WP-Logo" transform="translate(1032.000000, 40.000000)">
                    <path d="M112.955832,29.5071976 L112.641001,29.5071976 C111.022336,29.5071976 110.797725,29.0889471 110.797725,26.9513395 L110.797725,16.8676765 L112.955832,16.8676765 C117.6319,16.8676765 118.486342,20.3989238 118.486342,23.1407298 C118.486342,25.9754216 117.6319,29.5071976 112.955832,29.5071976 L112.955832,29.5071976 Z M93.9810699,23.0474914 L93.9810699,16.8676765 L95.8245167,16.8676765 C97.8478909,16.8676765 98.7473579,18.3078473 98.7473579,19.9806732 C98.7473579,21.6073207 97.8478909,23.0474914 95.8245167,23.0474914 L93.9810699,23.0474914 Z M112.820929,15.4736842 L104.772286,15.4736842 L104.772286,16.3561876 C107.289906,16.3561876 107.694615,16.913855 107.694615,20.2135046 L107.694615,26.1615457 C107.694615,29.4606666 107.289906,30.064865 104.772286,30.064865 C102.839301,29.7860313 101.534955,28.7170513 99.7361916,26.6725058 L97.6683045,24.3493029 C100.455731,23.837814 101.939493,22.0255712 101.939493,19.9806732 C101.939493,17.4253439 99.8265818,15.4736842 95.8695412,15.4736842 L87.9558011,15.4736842 L87.9558011,16.3561876 C90.4734217,16.3561876 90.8781307,16.913855 90.8781307,20.2135046 L90.8781307,26.1615457 C90.8781307,29.4606666 90.4734217,30.064865 87.9558011,30.064865 L87.9558011,30.9473684 L96.90357,30.9473684 L96.90357,30.064865 C94.3857789,30.064865 93.9810699,29.4606666 93.9810699,26.1615457 L93.9810699,24.4887197 L94.7452928,24.4887197 L99.7361916,30.9473684 L112.820929,30.9473684 C119.251077,30.9473684 122.038674,27.4161211 122.038674,23.1869083 C122.038674,18.958753 119.251077,15.4736842 112.820929,15.4736842 L112.820929,15.4736842 Z" id="Fill-1" fill="#32373C"></path>
                    <path d="M63.3600343,25.0529856 L66.4727569,15.5323271 C67.3753797,12.7794446 66.9693278,11.9863071 64.0819614,11.9863071 L64.0819614,11.0526316 L72.5635359,11.0526316 L72.5635359,11.9863071 C69.7213435,11.9863071 69.0447614,12.6861655 67.9167823,16.0928865 L62.7734578,32.0526316 L62.1872235,32.0526316 L57.5853016,17.4458752 L52.8938874,32.0526316 L52.3071398,32.0526316 L47.2998504,16.0928865 C46.2170452,12.6861655 45.4951181,11.9863071 42.878453,11.9863071 L42.878453,11.0526316 L52.8938874,11.0526316 L52.8938874,11.9863071 C50.2318773,11.9863071 49.5099502,12.6394375 50.4577469,15.5323271 L53.4799506,25.0529856 L58.0366986,11.0526316 L58.8939764,11.0526316 L63.3600343,25.0529856 Z" id="Fill-3" fill="#32373C"></path>
                    <path d="M78.0607735,16.9059419 C74.0151069,16.9059419 72.6076139,20.7385492 72.6076139,23.7400372 C72.6076139,26.7882921 74.0151069,30.5751834 78.0607735,30.5751834 C82.1509768,30.5751834 83.5581362,26.7882921 83.5581362,23.7400372 C83.5581362,20.7385492 82.1509768,16.9059419 78.0607735,16.9059419 M78.0607735,32.0526316 C73.2236214,32.0526316 69.2651934,28.3121568 69.2651934,23.7400372 C69.2651934,19.2146845 73.2236214,15.4736842 78.0607735,15.4736842 C82.8984259,15.4736842 86.8563536,19.2146845 86.8563536,23.7400372 C86.8563536,28.3121568 82.8984259,32.0526316 78.0607735,32.0526316" id="Fill-5" fill="#32373C"></path>
                    <path d="M132.439509,12.7066343 L129.878317,12.7066343 L129.878317,20.7014744 L132.439509,20.7014744 C134.956216,20.7014744 136.124408,18.9097979 136.124408,16.7505846 C136.124408,14.5451896 134.956216,12.7066343 132.439509,12.7066343 M133.428398,30.0286136 L133.428398,30.9473684 L123.138122,30.9473684 L123.138122,30.0286136 C126.148933,30.0286136 126.688203,29.2478811 126.688203,24.6525385 L126.688203,17.3018026 C126.688203,12.7066343 126.148933,11.9719092 123.138122,11.9719092 L123.138122,11.0526316 L132.439509,11.0526316 C137.06796,11.0526316 139.629834,13.4880638 139.629834,16.7505846 C139.629834,19.9207419 137.06796,22.4016588 132.439509,22.4016588 L129.878317,22.4016588 L129.878317,24.6525385 C129.878317,29.2478811 130.417587,30.0286136 133.428398,30.0286136" id="Fill-7" fill="#32373C"></path>
                    <path d="M146.804778,23.0474914 L146.804778,16.8676765 L148.663592,16.8676765 C150.703661,16.8676765 151.610798,18.3078473 151.610798,19.9806732 C151.610798,21.6073207 150.703661,23.0474914 148.663592,23.0474914 L146.804778,23.0474914 Z M170.833846,26.5797963 L170.607191,27.4161211 C170.199108,28.9495302 169.700226,29.5071976 166.481309,29.5071976 L165.846227,29.5071976 C163.489047,29.5071976 163.080964,28.9495302 163.080964,25.6500568 L163.080964,23.512978 C166.617336,23.512978 166.889391,23.837814 166.889391,26.2542553 L167.750957,26.2542553 L167.750957,19.3302963 L166.889391,19.3302963 C166.889391,21.7469138 166.617336,22.0715735 163.080964,22.0715735 L163.080964,16.8676765 L165.574172,16.8676765 C168.793433,16.8676765 169.292144,17.4253439 169.700226,18.958753 L169.927053,19.8412564 L170.652247,19.8412564 L170.335136,15.4736842 L157.005124,15.4736842 L157.005124,16.3561876 C159.544076,16.3561876 159.951986,16.913855 159.951986,20.2133284 L159.951986,26.1615457 C159.951986,29.1797178 159.605297,29.939901 157.603749,30.0482972 C155.701083,29.7506043 154.394977,28.6869119 152.607875,26.6725058 L150.522061,24.3493029 C153.333584,23.837814 154.829543,22.0255712 154.829543,19.9806732 C154.829543,17.4253439 152.698846,15.4736842 148.708991,15.4736842 L140.729282,15.4736842 L140.729282,16.3561876 C143.268061,16.3561876 143.675972,16.913855 143.675972,20.2133284 L143.675972,26.1615457 C143.675972,29.4606666 143.268061,30.064865 140.729282,30.064865 L140.729282,30.9473684 L149.75164,30.9473684 L149.75164,30.064865 C147.21286,30.064865 146.804778,29.4606666 146.804778,26.1615457 L146.804778,24.4887197 L147.575199,24.4887197 L152.607875,30.9473684 L171.241757,30.9473684 L171.513812,26.5797963 L170.833846,26.5797963 Z" id="Fill-9" fill="#32373C"></path>
                    <path d="M180.376419,32.0526316 C178.595726,32.0526316 177.037557,31.082788 176.369987,30.4823503 C176.147463,30.7135574 175.74682,31.4063028 175.658182,32.0526316 L174.812155,32.0526316 L174.812155,25.6800746 L175.702079,25.6800746 C176.058657,28.727804 178.105939,30.5287669 180.732322,30.5287669 C182.156606,30.5287669 183.314132,29.6974724 183.314132,28.3121568 C183.314132,27.1118068 182.290154,26.1878543 180.465226,25.3106688 L177.928156,24.0639022 C176.147463,23.1858409 174.812155,21.6619762 174.812155,19.6303317 C174.812155,17.4137216 176.815202,15.5206262 179.575302,15.5206262 C181.044158,15.5206262 182.290154,16.0746474 183.047037,16.7209762 C183.26956,16.5361857 183.491915,16.0278805 183.625969,15.4736842 L184.471321,15.4736842 L184.471321,20.9233397 L183.536656,20.9233397 C183.224819,18.7526207 182.067799,16.951833 179.708849,16.951833 C178.462347,16.951833 177.304652,17.6908198 177.304652,18.8454538 C177.304652,20.045979 178.239486,20.6923078 180.376419,21.7082176 L182.824176,22.9551593 C184.961278,24.0171353 185.80663,25.726316 185.80663,27.1118068 C185.80663,30.020812 183.358367,32.0526316 180.376419,32.0526316" id="Fill-11" fill="#32373C"></path>
                    <path d="M193.56979,32.0526316 C191.789265,32.0526316 190.231096,31.082788 189.563357,30.4823503 C189.341002,30.7135574 188.940359,31.4063028 188.851552,32.0526316 L188.005525,32.0526316 L188.005525,25.6800746 L188.895618,25.6800746 C189.252196,28.727804 191.299309,30.5287669 193.925692,30.5287669 C195.349976,30.5287669 196.507503,29.6974724 196.507503,28.3121568 C196.507503,27.1118068 195.483524,26.1878543 193.658765,25.3106688 L191.121527,24.0639022 C189.341002,23.1858409 188.005525,21.6619762 188.005525,19.6303317 C188.005525,17.4137216 190.008572,15.5206262 192.768672,15.5206262 C194.237528,15.5206262 195.483524,16.0746474 196.240407,16.7209762 C196.46293,16.5361857 196.685285,16.0278805 196.818833,15.4736842 L197.66486,15.4736842 L197.66486,20.9233397 L196.730026,20.9233397 C196.418189,18.7526207 195.261169,16.951833 192.90222,16.951833 C191.655718,16.951833 190.498191,17.6908198 190.498191,18.8454538 C190.498191,20.045979 191.432857,20.6923078 193.56979,21.7082176 L196.017715,22.9551593 C198.154648,24.0171353 199,25.726316 199,27.1118068 C199,30.020812 196.551737,32.0526316 193.56979,32.0526316" id="Fill-13" fill="#32373C"></path>
                    <ellipse id="Oval" fill="#FFFFFF" cx="20.339779" cy="20.4473684" rx="20.339779" ry="20.4473684"></ellipse>
                    <g id="Group-17">
                        <mask id="mask-2" fill="white">
                            <use xlink:href="#path-1"></use>
                        </mask>
                        <g id="Clip-16"></g>
                        <path d="M20.339779,-3.54000501e-05 C9.10647585,-3.54000501e-05 0,9.4020409 0,20.9999823 C0,32.5979237 9.10647585,42 20.339779,42 C31.5730822,42 40.679558,32.5979237 40.679558,20.9999823 C40.679558,9.4020409 31.5730822,-3.54000501e-05 20.339779,-3.54000501e-05 M20.339779,1.26002938 C22.9214244,1.26002938 25.4252381,1.78164912 27.7814459,2.81072858 C28.9141194,3.30526727 30.0066771,3.91751114 31.0287748,4.63046815 C32.0414436,5.33687615 32.9937671,6.1480683 33.8591729,7.04174256 C34.7247502,7.93523982 35.5104385,8.91847621 36.1946371,9.96401669 C36.8850074,11.0192922 37.4781738,12.1473148 37.9571642,13.3165784 C38.9538895,15.7494469 39.4591096,18.3345355 39.4591096,20.9999823 C39.4591096,23.6654291 38.9538895,26.2505177 37.9571642,28.6833862 C37.4781738,29.8526498 36.8850074,30.9806724 36.1946371,32.0359479 C35.5104385,33.0814884 34.7247502,34.0647248 33.8591729,34.958222 C32.9937671,35.8518963 32.0414436,36.6630885 31.0287748,37.3694965 C30.0066771,38.0824535 28.9141194,38.6946973 27.7814459,39.189236 C25.4252381,40.2183155 22.9214244,40.7399352 20.339779,40.7399352 C17.7581336,40.7399352 15.2543199,40.2183155 12.8979407,39.189236 C11.7652671,38.6946973 10.6728809,38.0824535 9.65078318,37.3694965 C8.6381144,36.6630885 7.68579087,35.8518963 6.82038508,34.958222 C5.95480786,34.0647248 5.16911952,33.0814884 4.48492093,32.0359479 C3.79437922,30.9806724 3.20138425,29.8526498 2.72239381,28.6833862 C1.72566852,26.2505177 1.22044846,23.6654291 1.22044846,20.9999823 C1.22044846,18.3345355 1.72566852,15.7494469 2.72239381,13.3165784 C3.20138425,12.1473148 3.79437922,11.0192922 4.48492093,9.96401669 C5.16911952,8.91847621 5.95480786,7.93523982 6.82038508,7.04174256 C7.68579087,6.1480683 8.6381144,5.33687615 9.65078318,4.63046815 C10.6728809,3.91751114 11.7652671,3.30526727 12.8979407,2.81072858 C15.2543199,1.78164912 17.7581336,1.26002938 20.339779,1.26002938" id="Fill-15" fill="#32373C" mask="url(#mask-2)"></path>
                    </g>
                    <path d="M35.2942557,12.5158001 C35.3673372,13.0788617 35.4088765,13.6832406 35.4088765,14.334124 C35.4088765,16.1279437 35.0850082,18.1451635 34.1125414,20.6678509 L28.9077244,36.2844022 C33.9741347,33.2192225 37.3812155,27.523322 37.3812155,20.9992845 C37.3812155,17.924804 36.624029,15.0343737 35.2942557,12.5158001 L35.2942557,12.5158001 Z M20.6391719,22.5462729 L15.5253621,37.9635705 C17.0526622,38.429867 18.6671776,38.6842105 20.339779,38.6842105 C22.3241834,38.6842105 24.2280946,38.3288092 25.9992871,37.681682 C25.9536112,37.6058439 25.9115548,37.5257132 25.8769101,37.4378913 L20.6391719,22.5462729 Z M31.8440844,20.1074723 C31.8440844,17.9212267 31.087415,16.4082224 30.4393337,15.2305867 C29.575455,13.7732088 28.7653534,12.5403044 28.7653534,11.0829265 C28.7653534,9.4575961 29.9531003,7.94441292 31.6270806,7.94441292 C31.7027475,7.94441292 31.7742778,7.95389267 31.847704,7.95872198 C28.8158555,5.07598282 24.7763783,3.31578947 20.339779,3.31578947 C14.3858765,3.31578947 9.14848308,6.4859619 6.10112193,11.2862941 C6.50134663,11.2993511 6.87830244,11.3077577 7.19803406,11.3077577 C8.98008535,11.3077577 11.7399466,11.0829265 11.7399466,11.0829265 C12.6581193,11.0271212 12.7667074,12.4276205 11.8488794,12.5403044 C11.8488794,12.5403044 10.9253635,12.6524517 9.89877511,12.708257 L16.1041538,31.863439 L19.8340687,20.257002 L17.179176,12.708257 C16.2610033,12.6524517 15.3917815,12.5403044 15.3917815,12.5403044 C14.4730917,12.4839625 14.580818,11.0271212 15.4998525,11.0829265 C15.4998525,11.0829265 18.3134907,11.3077577 19.987988,11.3077577 C21.7700393,11.3077577 24.5302453,11.0829265 24.5302453,11.0829265 C25.4489351,11.0271212 25.5570061,12.4276205 24.6388334,12.5403044 C24.6388334,12.5403044 23.7144557,12.6524517 22.6885567,12.708257 L28.8472254,31.7174865 L30.605146,25.9368048 C31.3862908,23.4105402 31.8440844,21.6206555 31.8440844,20.1074723 L31.8440844,20.1074723 Z M3.29834254,20.9992845 C3.29834254,27.9987405 7.21785569,34.0482537 12.9032181,36.9143586 L4.7739341,13.8025424 C3.82835586,16.0016662 3.29834254,18.4354586 3.29834254,20.9992845 L3.29834254,20.9992845 Z" id="Fill-18" fill="#32373C"></path>
                </g>
            </g>
        </g>
    </g>
</svg>